<svg width="25" height="25" viewBox="0 0 25 25" fill="none" xmlns="http://www.w3.org/2000/svg">
<path d="M7.90006 21.41C7.87006 21.41 7.83006 21.43 7.80006 21.43C5.86006 20.47 4.28006 18.88 3.31006 16.94C3.31006 16.91 3.33006 16.87 3.33006 16.84C4.55006 17.2 5.81006 17.47 7.06006 17.68C7.28006 18.94 7.54006 20.19 7.90006 21.41Z" fill="#009838"/>
<path d="M21.19 16.95C20.2 18.94 18.55 20.55 16.54 21.52C16.92 20.25 17.24 18.97 17.45 17.68C18.71 17.47 19.95 17.2 21.17 16.84C21.16 16.88 21.19 16.92 21.19 16.95Z" fill="#009838"/>
<path d="M21.27 8.20998C20.01 7.82998 18.74 7.51998 17.45 7.29998C17.24 6.00998 16.93 4.72998 16.54 3.47998C18.61 4.46998 20.28 6.13998 21.27 8.20998Z" fill="#009838"/>
<path d="M7.89998 3.59C7.53998 4.81 7.27998 6.05 7.06998 7.31C5.77998 7.51 4.49998 7.83 3.22998 8.21C4.19998 6.2 5.80998 4.55 7.79998 3.56C7.82998 3.56 7.86998 3.59 7.89998 3.59Z" fill="#009838"/>
<path d="M15.74 7.09C13.42 6.83 11.08 6.83 8.76001 7.09C9.01001 5.72 9.33001 4.35 9.78001 3.03C9.80001 2.95 9.79001 2.89 9.80001 2.81C10.59 2.62 11.4 2.5 12.25 2.5C13.09 2.5 13.91 2.62 14.69 2.81C14.7 2.89 14.7 2.95 14.72 3.03C15.17 4.36 15.49 5.72 15.74 7.09Z" fill="#009838"/>
<path d="M6.84 15.99C5.46 15.74 4.1 15.42 2.78 14.97C2.7 14.95 2.64 14.96 2.56 14.95C2.37 14.16 2.25 13.35 2.25 12.5C2.25 11.66 2.37 10.84 2.56 10.06C2.64 10.05 2.7 10.05 2.78 10.03C4.11 9.59001 5.46 9.26001 6.84 9.01001C6.59 11.33 6.59 13.67 6.84 15.99Z" fill="#009838"/>
<path d="M22.2499 12.5C22.2499 13.35 22.1299 14.16 21.9399 14.95C21.8599 14.96 21.7999 14.95 21.7199 14.97C20.3899 15.41 19.0299 15.74 17.6599 15.99C17.9199 13.67 17.9199 11.33 17.6599 9.01001C19.0299 9.26001 20.3999 9.58001 21.7199 10.03C21.7999 10.05 21.8599 10.06 21.9399 10.06C22.1299 10.85 22.2499 11.66 22.2499 12.5Z" fill="#009838"/>
<path d="M15.74 17.91C15.49 19.29 15.17 20.65 14.72 21.97C14.7 22.05 14.7 22.11 14.69 22.19C13.91 22.38 13.09 22.5 12.25 22.5C11.4 22.5 10.59 22.38 9.80001 22.19C9.79001 22.11 9.80001 22.05 9.78001 21.97C9.34001 20.64 9.01001 19.29 8.76001 17.91C9.92001 18.04 11.08 18.13 12.25 18.13C13.42 18.13 14.59 18.04 15.74 17.91Z" fill="#009838"/>
<path d="M16.0133 16.2633C13.5122 16.5789 10.9878 16.5789 8.48667 16.2633C8.17111 13.7622 8.17111 11.2378 8.48667 8.73667C10.9878 8.42111 13.5122 8.42111 16.0133 8.73667C16.3289 11.2378 16.3289 13.7622 16.0133 16.2633Z" fill="#009838"/>
</svg>
